<?xml version="1.0" standalone="no"?>
<!DOCTYPE svg PUBLIC "-//W3C//DTD SVG 20010904//EN"
 "http://www.w3.org/TR/2001/REC-SVG-20010904/DTD/svg10.dtd">
<svg version="1.0" xmlns="http://www.w3.org/2000/svg"
 width="16.000000pt" height="16.000000pt" viewBox="0 0 16.000000 16.000000"
 preserveAspectRatio="xMidYMid meet">
<metadata>
Created by potrace 1.11, written by Peter Selinger 2001-2013
</metadata>
<g transform="translate(0.000000,16.000000) scale(0.006154,-0.006154)"
fill="#000000" stroke="none">
<path d="M648 1808 c-20 -62 -68 -212 -107 -333 -38 -121 -104 -328 -146 -460
-43 -132 -83 -259 -90 -282 l-13 -43 56 0 57 0 22 68 c12 37 37 117 56 177 19
61 65 205 102 320 37 116 96 302 131 415 36 113 69 215 74 228 9 21 8 22 -48
22 l-58 0 -36 -112z"/>
<path d="M1106 1678 c-42 -134 -102 -322 -133 -418 -31 -96 -62 -195 -70 -220
-20 -61 -82 -255 -98 -307 l-13 -43 57 0 57 0 17 58 c10 31 35 111 56 177 22
66 62 194 91 285 28 91 60 190 70 220 10 30 46 143 80 250 33 107 65 205 70
218 9 21 8 22 -48 22 l-58 0 -78 -242z"/>
<path d="M1648 1808 c-34 -107 -101 -313 -268 -838 -40 -124 -76 -237 -80
-252 l-9 -28 58 0 59 0 10 38 c8 32 233 739 338 1064 18 59 34 111 34 117 0 7
-22 11 -53 11 l-53 0 -36 -112z"/>
<path d="M2157 1838 c-14 -46 -50 -159 -80 -253 -66 -203 -242 -757 -267 -837
l-18 -58 57 0 56 0 59 188 c33 103 76 239 97 302 20 63 62 196 94 295 31 99
76 240 99 313 l43 132 -57 0 -57 0 -26 -82z"/>
</g>
</svg>
